<mxfile host="app.diagrams.net" modified="2023-12-12T17:00:13.740Z" agent="Mozilla/5.0 (Windows NT 10.0; Win64; x64) AppleWebKit/537.36 (KHTML, like Gecko) Chrome/120.0.0.0 Safari/537.36 Edg/120.0.0.0" version="22.1.7" etag="yJ6o69FFlTkhzrFZm0Yg" type="github">
  <diagram name="Page-1" id="iyjL0SpkzG_3_o8AuMqo">
    <mxGraphModel>
      <root>
        <mxCell id="0" />
        <mxCell id="1" parent="0" />
      </root>
    </mxGraphModel>
  </diagram>
</mxfile>
